<svg width="256" height="256" viewBox="0 0 256 256" fill="none" xmlns="http://www.w3.org/2000/svg">
<path d="M87.12 119C111.592 119 131 139.12 131 164C131 185.109 148.333 202.024 168.88 202.024C189.407 202.024 207.355 185.13 207.355 164V163.98V163.96V163.94V163.92V163.899V163.879V163.859V163.839V163.819V163.799V163.779V163.759V163.739V163.719V163.699V163.679V163.659V163.639V163.619V163.599V163.579V163.559V163.539V163.519V163.499V163.48V163.46V163.44V163.42V163.4V163.38V163.36V163.34V163.32V163.301V163.281V163.261V163.241V163.221V163.201V163.182V163.162V163.142V163.122V163.102V163.083V163.063V163.043V163.023V163.004V162.984V162.964V162.944V162.925V162.905V162.885V162.866V162.846V162.826V162.807V162.787V162.767V162.748V162.728V162.708V162.689V162.669V162.649V162.63V162.61V162.59V162.571V162.551V162.532V162.512V162.492V162.473V162.453V162.434V162.414V162.395V162.375V162.355V162.336V162.316V162.297V162.277V162.258V162.238V162.219V162.199V162.18V162.16V162.141V162.121V162.102V162.082V162.063V162.043V162.024V162.004V161.985V161.966V161.946V161.927V161.907V161.888V161.868V161.849V161.83V161.81V161.791V161.771V161.752V161.733V161.713V161.694V161.674V161.655V161.636V161.616V161.597V161.578V161.558V161.539V161.52V161.5V161.481V161.462V161.442V161.423V161.404V161.384V161.365V161.346V161.326V161.307V161.288V161.268V161.249V161.23V161.211V161.191V161.172V161.153V161.133V161.114V161.095V161.076V161.056V161.037V161.018V160.999V160.979V160.96V160.941V160.922V160.902V160.883V160.864V160.845V160.825V160.806V160.787V160.768V160.749V160.729V160.71V160.691V160.672V160.652V160.633V160.614V160.595V160.576V160.556V160.537V160.518V160.499V160.48V160.461V160.441V160.422V160.403V160.384V160.365V160.345V160.326V160.307V160.288V160.269V160.25V160.23V160.211V160.192V160.173V160.154V160.135V160.115V160.096V160.077V160.058V160.039V160.02V160.001V159.981V159.962V159.943V159.924V159.905V159.886V159.867V159.847V159.828V159.809V159.79V159.771V159.752V159.733V159.713V159.694V159.675V159.656V159.637V159.618V159.599V159.58V159.56V159.541V159.522V159.503V159.484V159.465V159.446V159.426V159.407V159.388V159.369V159.35V159.331V159.312V159.293V159.273V159.254V159.235V159.216V159.197V159.178V159.159V159.139V159.12V159.101V159.082V159.063V159.044V159.025V159.006V158.986V158.967V158.948V158.929V158.91V158.891V158.872V158.852V158.833V158.814V158.795V158.776V158.757V158.737V158.718V158.699V158.68V158.661V158.642V158.623V158.603V158.584V158.565V158.546V158.527V158.508V158.488V158.469V158.45V158.431V158.412V158.392V158.373V158.354V158.335V158.316V158.297V158.277V158.258V158.239V158.22V158.201V158.181V158.162V158.143V158.124V158.104V158.085V158.066V158.047V158.028V158.008V157.989V157.97V157.951V157.931V157.912V157.893V157.874V157.854V157.835V157.816V157.797V157.777V157.758V157.739V157.72V157.7V157.681V157.662V157.642V157.623V157.604V157.585V157.565V157.546V157.527V157.507V157.488V157.469V157.449V157.43V157.411V157.391V157.372V157.353V157.333V157.314V157.295V157.275V157.256V157.237V157.217V157.198V157.179V157.159V157.14V157.12V157.101V157.082V157.062V157.043V157.023V157.004V156.985V156.965V156.946V156.926V156.907V156.887V156.868V156.848V156.829V156.81V156.79V156.771V156.751V156.732V156.712V156.693V156.673V156.654V156.634V156.615V156.595V156.576V156.556V156.537V156.517V156.498V156.478V156.458V156.439V156.419V156.4V156.38V156.361V156.341V156.321V156.302V156.282V156.263V156.243V156.223V156.204V156.184V156.164V156.145V156.125V156.105V156.086V156.066V156.046V156.027V156.007V155.987V155.968V155.948V155.928V155.909V155.889V155.869V155.849V155.83V155.81V155.79V155.77V155.751V155.731V155.711V155.691V155.671V155.652V155.632V155.612V155.592V155.572V155.552V155.533V155.513V155.493V155.473V155.453V155.433V155.413V155.393V155.373V155.354V155.334V155.314V155.294V155.274V155.254V155.234V155.214V155.194V155.174V155.154V155.134V155.114V155.094V155.074V155.054V155.034V155.014V155H214.581V155.013V155.033V155.053V155.073V155.093V155.113V155.133V155.153V155.173V155.193V155.213V155.233V155.252V155.272V155.292V155.312V155.332V155.352V155.372V155.392V155.412V155.431V155.451V155.471V155.491V155.511V155.531V155.55V155.57V155.59V155.61V155.629V155.649V155.669V155.689V155.709V155.728V155.748V155.768V155.787V155.807V155.827V155.847V155.866V155.886V155.906V155.925V155.945V155.965V155.984V156.004V156.023V156.043V156.063V156.082V156.102V156.122V156.141V156.161V156.18V156.2V156.219V156.239V156.259V156.278V156.298V156.317V156.337V156.356V156.376V156.395V156.415V156.434V156.454V156.473V156.493V156.512V156.532V156.551V156.571V156.59V156.61V156.629V156.648V156.668V156.687V156.707V156.726V156.746V156.765V156.784V156.804V156.823V156.843V156.862V156.881V156.901V156.92V156.939V156.959V156.978V156.997V157.017V157.036V157.056V157.075V157.094V157.113V157.133V157.152V157.171V157.191V157.21V157.229V157.249V157.268V157.287V157.306V157.326V157.345V157.364V157.384V157.403V157.422V157.441V157.461V157.48V157.499V157.518V157.538V157.557V157.576V157.595V157.614V157.634V157.653V157.672V157.691V157.711V157.73V157.749V157.768V157.787V157.807V157.826V157.845V157.864V157.883V157.902V157.922V157.941V157.96V157.979V157.998V158.017V158.037V158.056V158.075V158.094V158.113V158.132V158.152V158.171V158.19V158.209V158.228V158.247V158.266V158.285V158.305V158.324V158.343V158.362V158.381V158.4V158.419V158.438V158.458V158.477V158.496V158.515V158.534V158.553V158.572V158.591V158.61V158.63V158.649V158.668V158.687V158.706V158.725V158.744V158.763V158.782V158.801V158.821V158.84V158.859V158.878V158.897V158.916V158.935V158.954V158.973V158.992V159.011V159.031V159.05V159.069V159.088V159.107V159.126V159.145V159.164V159.183V159.202V159.221V159.24V159.26V159.279V159.298V159.317V159.336V159.355V159.374V159.393V159.412V159.431V159.45V159.47V159.489V159.508V159.527V159.546V159.565V159.584V159.603V159.622V159.641V159.66V159.68V159.699V159.718V159.737V159.756V159.775V159.794V159.813V159.832V159.852V159.871V159.89V159.909V159.928V159.947V159.966V159.985V160.004V160.024V160.043V160.062V160.081V160.1V160.119V160.138V160.158V160.177V160.196V160.215V160.234V160.253V160.272V160.292V160.311V160.33V160.349V160.368V160.387V160.407V160.426V160.445V160.464V160.483V160.502V160.522V160.541V160.56V160.579V160.598V160.618V160.637V160.656V160.675V160.694V160.714V160.733V160.752V160.771V160.791V160.81V160.829V160.848V160.867V160.887V160.906V160.925V160.944V160.964V160.983V161.002V161.022V161.041V161.06V161.079V161.099V161.118V161.137V161.157V161.176V161.195V161.215V161.234V161.253V161.272V161.292V161.311V161.33V161.35V161.369V161.389V161.408V161.427V161.447V161.466V161.485V161.505V161.524V161.544V161.563V161.582V161.602V161.621V161.641V161.66V161.679V161.699V161.718V161.738V161.757V161.777V161.796V161.816V161.835V161.855V161.874V161.894V161.913V161.933V161.952V161.972V161.991V162.011V162.03V162.05V162.069V162.089V162.108V162.128V162.147V162.167V162.187V162.206V162.226V162.245V162.265V162.285V162.304V162.324V162.343V162.363V162.383V162.402V162.422V162.442V162.461V162.481V162.501V162.52V162.54V162.56V162.58V162.599V162.619V162.639V162.658V162.678V162.698V162.718V162.738V162.757V162.777V162.797V162.817V162.836V162.856V162.876V162.896V162.916V162.936V162.956V162.975V162.995V163.015V163.035V163.055V163.075V163.095V163.115V163.135V163.155V163.174V163.194V163.214V163.234V163.254V163.274V163.294V163.314V163.334V163.354V163.374V163.394V163.415V163.435V163.455V163.475V163.495V163.515V163.535V163.555V163.575V163.595V163.616V163.636V163.656V163.676V163.696V163.716V163.737V163.757V163.777V163.797V163.817V163.838V163.858V163.878V163.898V163.919V163.939V163.959V163.98V164C214.581 188.828 193.404 209 168.88 209C144.379 209 124 188.851 124 164C124 142.927 107.703 125.976 87.12 125.976C66.8816 125.976 50.2548 142.375 49.7326 163H42.7707C43.295 138.596 62.9629 119 87.12 119Z" fill="#888888" stroke="white" stroke-width="2"/>
<path d="M27.6211 145.711C26.9295 140.823 26.5715 135.823 26.5715 130.739C26.5715 73.4893 71.9498 27.0797 127.927 27.0797C183.904 27.0797 229.282 73.4893 229.282 130.739C229.282 135.823 228.924 140.823 228.233 145.711H220.259C221.009 140.833 221.399 135.832 221.399 130.739C221.399 77.942 179.55 35.142 127.927 35.142C76.3036 35.142 34.4547 77.942 34.4547 130.739C34.4547 135.832 34.8443 140.833 35.5946 145.711H27.6211Z" fill="#00AAFF"/>
<rect x="37.1813" y="137.036" width="13.5261" height="54.1043" rx="6.76303" fill="black"/>
<path d="M21.9644 147.346C21.9644 140.718 27.337 135.346 33.9644 135.346H36.5628C38.7719 135.346 40.5628 137.136 40.5628 139.346V188.831C40.5628 191.041 38.7719 192.831 36.5628 192.831H33.9645C27.337 192.831 21.9644 187.459 21.9644 180.831V147.346Z" fill="#00AAFF"/>
<rect x="206.257" y="137.036" width="13.5261" height="54.1043" rx="6.76303" fill="black"/>
<path d="M235 147.346C235 140.718 229.627 135.346 223 135.346H220.402C218.193 135.346 216.402 137.136 216.402 139.346V188.831C216.402 191.041 218.193 192.831 220.402 192.831H223C229.627 192.831 235 187.459 235 180.831V147.346Z" fill="#00AAFF"/>
</svg>
